<svg xmlns="http://www.w3.org/2000/svg" version="1.1" xmlns:xlink="http://www.w3.org/1999/xlink" xmlns:svgjs="http://svgjs.dev/svgjs" width="100" height="100"><svg width="100" height="100" viewBox="0 0 100 100" fill="none" xmlns="http://www.w3.org/2000/svg">
<circle cx="50" cy="50" r="50" fill="black"></circle>
<g clip-path="url(#clip0_1_5)">
<path d="M42.3242 28.0625L46.4023 35H46.25H37.8125C35.2227 35 33.125 32.9023 33.125 30.3125C33.125 27.7227 35.2227 25.625 37.8125 25.625H38.0703C39.8164 25.625 41.4453 26.5508 42.3242 28.0625ZM27.5 30.3125C27.5 32 27.9102 33.5938 28.625 35H23.75C21.6758 35 20 36.6758 20 38.75V46.25C20 48.3242 21.6758 50 23.75 50H76.25C78.3242 50 80 48.3242 80 46.25V38.75C80 36.6758 78.3242 35 76.25 35H71.375C72.0898 33.5938 72.5 32 72.5 30.3125C72.5 24.6172 67.8828 20 62.1875 20H61.9297C58.1914 20 54.7227 21.9805 52.8242 25.2031L50 30.0195L47.1758 25.2148C45.2773 21.9805 41.8086 20 38.0703 20H37.8125C32.1172 20 27.5 24.6172 27.5 30.3125ZM66.875 30.3125C66.875 32.9023 64.7773 35 62.1875 35H53.75H53.5977L57.6758 28.0625C58.5664 26.5508 60.1836 25.625 61.9297 25.625H62.1875C64.7773 25.625 66.875 27.7227 66.875 30.3125ZM23.75 53.75V74.375C23.75 77.4805 26.2695 80 29.375 80H46.25V53.75H23.75ZM53.75 80H70.625C73.7305 80 76.25 77.4805 76.25 74.375V53.75H53.75V80Z" fill="white"></path>
</g>
<defs>
<clipPath id="SvgjsClipPath1001">
<rect width="60" height="60" fill="white" transform="translate(20 20)"></rect>
</clipPath>
</defs>
</svg><style>@media (prefers-color-scheme: light) { :root { filter: none; } }
@media (prefers-color-scheme: dark) { :root { filter: invert(100%); } }
</style></svg>